<?xml version="1.0" standalone="no"?>
<!DOCTYPE svg PUBLIC "-//W3C//DTD SVG 20010904//EN"
 "http://www.w3.org/TR/2001/REC-SVG-20010904/DTD/svg10.dtd">
<svg version="1.0" xmlns="http://www.w3.org/2000/svg"
 width="1024.000000pt" height="1024.000000pt" viewBox="0 0 1024.000000 1024.000000"
 preserveAspectRatio="xMidYMid meet">

<g transform="translate(0.000000,1024.000000) scale(0.100000,-0.100000)"
fill="#1B3FAB" stroke="none">
<path d="M4207 7925 c3 -275 6 -501 7 -502 1 -1 26 11 56 28 30 16 97 50 148
76 50 26 92 51 92 56 0 4 -24 74 -54 155 -30 81 -95 260 -146 397 -50 138 -95
259 -99 270 -5 11 -6 -205 -4 -480z"/>
<path d="M3130 7691 c0 -4 13 -25 28 -47 152 -211 275 -381 317 -439 28 -38
90 -123 137 -187 l86 -117 43 57 c24 31 72 91 106 133 35 43 63 79 63 82 0 3
-115 81 -256 174 -140 92 -316 209 -390 260 -74 50 -134 89 -134 84z"/>
<path d="M5307 7650 c-557 -59 -1040 -328 -1361 -759 -173 -232 -279 -482
-323 -756 -25 -155 -22 -431 5 -570 49 -249 135 -446 281 -644 186 -250 434
-403 738 -456 159 -28 422 -14 583 30 126 35 325 110 300 113 -118 16 -361
127 -491 226 -255 193 -427 483 -473 799 -19 124 -20 200 -5 322 35 287 182
562 426 796 201 192 480 338 778 407 395 91 770 21 1116 -209 97 -65 299 -255
358 -338 40 -57 39 -47 -5 42 -257 513 -807 892 -1424 982 -132 19 -388 27
-503 15z"/>
<path d="M6089 6891 c-24 -19 -24 -21 -21 -178 l4 -158 -34 30 c-18 17 -63 58
-100 93 -72 68 -103 77 -138 42 -11 -11 -20 -31 -20 -45 0 -30 23 -55 178
-195 l112 -101 0 -225 c0 -123 -2 -224 -5 -224 -11 0 -374 212 -383 223 -5 7
-24 73 -42 147 -52 220 -58 238 -85 256 -31 20 -74 8 -94 -27 -12 -22 -10 -37
24 -144 21 -66 40 -126 43 -134 6 -17 -28 0 -169 85 -59 35 -117 64 -128 64
-12 0 -33 -11 -47 -26 -20 -19 -24 -31 -19 -52 4 -15 11 -32 15 -38 5 -5 70
-42 145 -80 74 -38 135 -72 135 -75 0 -3 -48 -20 -107 -38 -179 -54 -178 -54
-161 -115 17 -63 63 -61 255 9 83 30 153 55 156 55 3 0 65 -34 139 -76 73 -42
160 -90 192 -106 53 -27 58 -31 40 -41 -10 -6 -93 -53 -183 -104 -90 -51 -172
-93 -182 -93 -11 0 -89 20 -175 45 -172 50 -203 54 -227 27 -21 -23 -22 -75
-3 -91 8 -7 63 -25 123 -41 59 -17 114 -32 122 -35 8 -3 -42 -33 -115 -70
-134 -68 -174 -100 -174 -140 0 -25 42 -65 69 -65 9 0 75 36 146 80 126 77
162 94 151 68 -2 -7 -19 -57 -36 -110 -25 -76 -30 -102 -23 -125 11 -33 55
-57 87 -49 28 7 39 32 66 143 11 48 30 123 42 166 l20 78 122 71 c66 39 153
90 191 114 l70 43 3 -197 c1 -108 0 -207 -3 -218 -2 -12 -61 -73 -130 -135
-68 -62 -129 -125 -134 -139 -14 -40 20 -89 63 -90 10 0 60 40 112 92 l94 92
0 -125 c0 -118 1 -127 23 -147 29 -27 68 -28 92 -2 16 18 17 33 12 140 -5 84
-4 120 4 120 6 0 43 -31 83 -69 70 -69 80 -74 123 -72 29 1 57 44 49 75 -3 14
-59 70 -136 136 l-130 113 0 218 0 218 193 -116 c105 -64 196 -119 200 -123 5
-4 24 -72 43 -151 19 -79 39 -157 45 -172 21 -51 72 -62 107 -24 29 31 28 66
-8 166 -17 46 -30 85 -30 87 0 12 30 -4 146 -76 138 -86 160 -92 197 -48 42
49 16 80 -133 159 -118 62 -137 75 -129 83 3 3 52 17 109 32 58 14 115 33 128
40 44 29 15 114 -40 114 -12 0 -92 -20 -179 -45 -87 -25 -166 -45 -176 -45
-10 0 -70 30 -133 66 -63 36 -143 82 -177 101 -35 19 -63 38 -63 41 0 4 84 53
187 110 l186 102 161 -55 c93 -33 173 -55 190 -53 61 6 74 93 18 122 -15 7
-71 26 -124 41 -54 15 -98 30 -98 34 0 3 50 31 112 61 121 60 178 102 178 130
0 29 -43 73 -71 72 -13 0 -82 -36 -154 -81 -71 -45 -131 -78 -133 -72 -2 5 13
62 34 126 30 95 34 121 26 141 -21 44 -99 45 -120 0 -6 -13 -27 -90 -47 -170
-19 -81 -41 -158 -47 -171 -10 -23 -64 -56 -355 -222 l-43 -25 0 230 0 229 48
43 c151 137 232 223 232 246 0 33 -34 64 -69 64 -24 0 -46 -18 -121 -97 l-93
-98 7 163 7 162 -25 25 c-30 30 -56 32 -87 6z"/>
<path d="M2592 6725 c7 -7 649 -374 748 -427 43 -23 81 -40 83 -38 2 3 26 73
53 155 28 83 53 157 58 166 6 14 -5 18 -71 28 -713 107 -886 130 -871 116z"/>
<path d="M3165 5884 c-104 -24 -280 -64 -390 -89 -313 -71 -356 -83 -315 -84
19 -1 89 -10 155 -21 92 -16 726 -124 780 -133 5 -1 9 3 8 8 -10 64 -22 288
-17 321 5 39 4 44 -12 43 -11 0 -104 -20 -209 -45z"/>
<path d="M3415 5257 c-216 -191 -668 -607 -660 -607 2 0 25 10 52 21 122 54
786 309 803 309 14 0 14 0 -22 76 -18 38 -48 112 -68 166 l-35 97 -70 -62z"/>
<path d="M6807 4935 c-243 -34 -481 -118 -862 -303 -380 -184 -588 -259 -824
-298 -151 -24 -397 -15 -538 20 -184 46 -369 130 -470 213 -77 62 -45 11 50
-81 292 -285 662 -400 1105 -341 221 29 389 81 717 222 483 208 642 269 855
323 191 49 458 65 641 40 146 -20 349 -83 469 -145 51 -26 32 -3 -51 65 -160
131 -354 227 -547 271 -116 27 -406 34 -545 14z"/>
<path d="M3802 4646 c-17 -33 -80 -149 -138 -256 -59 -107 -130 -238 -158
-290 -29 -52 -61 -108 -71 -125 l-20 -30 40 30 c189 142 555 424 584 451 12
11 3 25 -58 89 -40 42 -89 103 -110 134 l-37 58 -32 -61z"/>
<path d="M7155 4593 c-225 -26 -457 -103 -825 -271 -324 -148 -440 -193 -632
-247 -203 -58 -396 -86 -591 -87 -82 0 -145 -4 -140 -8 15 -15 137 -61 213
-80 124 -31 207 -41 355 -41 213 0 413 42 643 135 124 50 154 65 442 214 416
214 605 272 894 273 132 0 266 -17 362 -46 62 -19 74 -18 49 1 -69 54 -259
126 -394 149 -76 14 -293 18 -376 8z"/>
<path d="M1149 3237 c-134 -38 -222 -137 -235 -264 -16 -151 84 -279 249 -319
56 -14 82 -15 151 -7 46 6 101 19 122 29 33 16 39 23 37 48 -1 16 -4 30 -6 32
-2 3 -26 -6 -53 -18 -68 -30 -184 -36 -254 -13 -101 34 -170 122 -170 220 0
67 27 122 83 171 53 46 102 64 178 64 68 0 117 -14 163 -45 20 -14 38 -25 40
-25 2 0 9 14 16 30 16 38 6 51 -63 80 -63 28 -191 36 -258 17z"/>
<path d="M1785 3237 c-111 -37 -191 -110 -221 -201 -21 -63 -15 -166 14 -221
85 -164 325 -222 508 -121 108 60 163 160 151 276 -17 163 -142 269 -326 276
-54 3 -101 -1 -126 -9z m230 -81 c238 -112 168 -427 -99 -444 -88 -5 -142 9
-198 51 -63 48 -88 98 -88 176 0 106 47 178 145 222 61 28 176 26 240 -5z"/>
<path d="M3877 3240 c-88 -22 -170 -83 -214 -158 -21 -35 -27 -62 -31 -123 -4
-70 -2 -85 22 -133 48 -97 134 -157 254 -177 124 -21 247 15 327 95 62 63 80
107 80 201 -1 69 -4 87 -30 133 -58 106 -158 164 -290 168 -44 2 -97 -1 -118
-6z m195 -72 c53 -16 132 -88 153 -140 36 -88 13 -183 -60 -246 -55 -49 -94
-65 -171 -70 -168 -11 -287 86 -287 233 0 98 50 172 148 216 47 22 157 25 217
7z"/>
<path d="M6083 3236 c-183 -59 -273 -224 -216 -392 23 -68 101 -144 175 -172
108 -40 248 -38 337 5 30 15 36 23 34 47 -1 16 -4 30 -6 32 -2 2 -34 -7 -71
-21 -117 -44 -249 -30 -328 35 -109 90 -104 271 10 357 57 43 110 56 204 51
62 -4 85 -10 117 -31 51 -34 59 -34 72 0 12 32 2 42 -71 76 -57 26 -195 33
-257 13z"/>
<path d="M2357 3234 c-4 -4 -7 -135 -7 -291 l0 -283 41 0 40 0 -3 205 c-2 113
0 205 3 205 4 0 44 -55 90 -121 92 -133 127 -179 138 -179 3 0 47 59 96 131
50 72 100 143 112 157 l22 27 1 -212 0 -213 40 0 40 0 -2 288 -3 287 -27 3
c-30 4 -39 -6 -197 -236 l-85 -121 -75 111 c-149 218 -196 269 -224 242z"/>
<path d="M3136 3224 c-3 -9 -6 -132 -6 -274 0 -142 3 -265 6 -274 4 -10 18
-16 40 -16 l34 0 0 130 0 130 109 0 c108 0 109 0 115 25 4 14 4 30 1 35 -4 6
-55 10 -116 10 l-109 0 0 90 0 90 185 0 185 0 0 35 0 35 -219 0 c-190 0 -220
-2 -225 -16z"/>
<path d="M4418 3234 c-9 -9 -11 -535 -2 -558 4 -10 18 -16 40 -16 l34 0 0 95
0 95 88 0 88 0 78 -95 c76 -94 77 -95 122 -95 24 0 44 2 44 4 0 3 -36 48 -80
100 -44 53 -80 98 -80 101 0 2 18 14 39 25 22 11 52 36 68 57 24 31 28 45 28
104 0 60 -3 71 -31 106 -54 66 -87 77 -269 81 -88 2 -163 0 -167 -4z m315 -78
c95 -40 103 -158 13 -212 -24 -14 -56 -19 -143 -22 l-113 -4 0 126 0 126 105
0 c67 0 118 -5 138 -14z"/>
<path d="M4970 3205 l0 -35 95 0 95 0 0 -255 0 -255 40 0 40 0 0 255 0 255
101 0 100 0 -3 33 -3 32 -232 3 -233 2 0 -35z"/>
<path d="M6543 3233 c-10 -3 -13 -71 -13 -289 l0 -284 201 0 200 0 -3 33 -3
32 -157 3 -158 3 0 254 0 255 -27 -1 c-16 0 -34 -3 -40 -6z"/>
<path d="M7025 3227 c-3 -7 -4 -136 -3 -287 l3 -275 38 -3 37 -3 0 290 0 291
-35 0 c-20 0 -38 -6 -40 -13z"/>
<path d="M7237 3233 c-4 -3 -7 -134 -7 -290 l0 -283 40 0 40 0 2 212 3 211
104 -152 c57 -83 108 -154 113 -157 16 -10 41 20 139 167 l94 140 3 -210 2
-211 40 0 40 0 -2 288 -3 287 -27 3 c-23 3 -34 -9 -99 -100 -158 -226 -174
-248 -180 -248 -4 0 -57 74 -118 165 -62 91 -120 169 -131 175 -22 12 -44 13
-53 3z"/>
<path d="M8065 2950 l-145 -290 40 0 40 0 45 90 c25 50 51 90 58 90 23 0 257
-69 287 -85 17 -9 41 -33 55 -55 23 -36 29 -40 66 -40 22 0 39 3 37 8 -19 38
-132 270 -196 405 -79 162 -82 167 -112 167 -29 0 -33 -6 -175 -290z m248 37
c37 -79 67 -146 67 -149 0 -3 -46 9 -103 27 -57 18 -112 34 -123 37 -10 2 -19
8 -19 13 0 13 98 214 105 214 3 1 35 -64 73 -142z"/>
<path d="M8454 3226 c-3 -8 -4 -23 -2 -33 3 -15 16 -18 90 -21 l88 -3 2 -252
3 -252 38 -3 37 -3 0 255 0 256 90 0 90 0 0 35 0 35 -215 0 c-179 0 -217 -2
-221 -14z"/>
<path d="M8978 2978 c-2 -145 -2 -275 0 -290 l3 -28 205 0 204 0 0 35 0 35
-170 0 -170 0 0 95 0 94 128 3 127 3 3 33 3 32 -130 0 -131 0 0 90 0 90 170 0
170 0 0 35 0 35 -205 0 -204 0 -3 -262z"/>
</g>
</svg>
